<svg height="31" viewBox="0 0 88 31" width="88" xmlns="http://www.w3.org/2000/svg"><path d="m2.499.352 83.127.148c1.161 0 2.198-.173 2.198 2.333l-.102 27.552h-87.321v-27.655c0-1.235.119-2.378 2.098-2.378z" fill="#aab2ab"/><path d="m25.316 14.449c.003 5.557-4.471 10.065-9.993 10.069-5.522.003-10.001-4.5-10.005-10.057v-.012c-.003-5.558 4.471-10.066 9.994-10.069 5.522-.004 10.001 4.5 10.005 10.057-.001.003-.001.007-.001.012zm21.148-11.143c4.349 0 7.875 3.548 7.875 7.925s-3.526 7.926-7.875 7.926c-4.35 0-7.875-3.548-7.875-7.926-.001-4.377 3.525-7.925 7.875-7.925zm28.632 7.751c.003 4.314-3.47 7.814-7.757 7.818-4.286.003-7.765-3.492-7.769-7.806v-.012c-.002-4.314 3.471-7.814 7.758-7.817s7.765 3.492 7.768 7.806z" fill="#fff"/><path d="m23.446 6.252c2.217 2.232 3.326 4.964 3.326 8.197s-1.089 5.936-3.269 8.11c-2.313 2.289-5.046 3.434-8.2 3.434-3.116 0-5.802-1.135-8.057-3.405-2.256-2.271-3.383-4.982-3.383-8.138s1.127-5.889 3.383-8.198c2.198-2.232 4.884-3.348 8.057-3.348 3.212 0 5.926 1.116 8.143 3.348zm-14.707 1.501c-1.875 1.905-2.812 4.138-2.812 6.698 0 2.561.928 4.773 2.783 6.64s4.064 2.801 6.627 2.801 4.791-.942 6.684-2.829c1.797-1.752 2.697-3.955 2.697-6.611 0-2.636-.914-4.874-2.74-6.712s-4.04-2.757-6.641-2.757-4.801.923-6.598 2.77zm4.933 5.572c-.287-.628-.715-.942-1.287-.942-1.011 0-1.516.685-1.516 2.054 0 1.37.505 2.055 1.516 2.055.667 0 1.145-.333 1.431-1.002l1.401.751c-.668 1.194-1.67 1.792-3.006 1.792-1.03 0-1.856-.317-2.476-.954-.621-.636-.931-1.512-.931-2.629 0-1.099.32-1.97.959-2.616s1.436-.968 2.39-.968c1.413 0 2.424.56 3.035 1.679zm6.593 0c-.287-.628-.707-.942-1.261-.942-1.031 0-1.547.685-1.547 2.054 0 1.37.516 2.055 1.547 2.055.669 0 1.137-.333 1.404-1.002l1.433.751c-.667 1.194-1.667 1.792-3.001 1.792-1.029 0-1.853-.317-2.473-.954-.619-.636-.928-1.512-.928-2.629 0-1.099.314-1.97.943-2.616.628-.646 1.428-.968 2.4-.968 1.41 0 2.42.56 3.029 1.679zm66.088-13.325h-84.706c-.908 0-1.647.744-1.647 1.658v28.967c0 .207.167.375.372.375h87.256c.205 0 .372-.168.372-.375v-28.967c0-.914-.739-1.658-1.647-1.658zm-84.706.749h84.705c.498 0 .903.408.903.909v20.109h-60.541c-2.219 4.038-6.494 6.779-11.401 6.779-4.908 0-9.183-2.738-11.4-6.779h-3.169v-20.109c0-.501.405-.909.903-.909zm65.63 1.751c-2.355 0-4.349.827-5.98 2.481-1.675 1.712-2.512 3.737-2.512 6.077s.837 4.351 2.512 6.034c1.674 1.683 3.668 2.524 5.98 2.524 2.342 0 4.371-.849 6.089-2.546 1.616-1.611 2.427-3.616 2.427-6.012s-.824-4.422-2.471-6.077c-1.645-1.654-3.66-2.481-6.045-2.481zm.022 1.54c1.93 0 3.569.685 4.918 2.054 1.361 1.355 2.043 3.01 2.043 4.964 0 1.968-.666 3.602-2.001 4.9-1.405 1.397-3.058 2.096-4.96 2.096-1.901 0-3.541-.691-4.917-2.074-1.376-1.384-2.064-3.024-2.064-4.921s.695-3.552 2.086-4.964c1.332-1.371 2.965-2.055 4.895-2.055zm-3.791 5.809c.34-2.153 1.846-3.304 3.733-3.304 2.716 0 4.369 1.982 4.369 4.626 0 2.58-1.76 4.584-4.411 4.584-1.824 0-3.457-1.13-3.755-3.347h2.143c.063 1.151.806 1.556 1.866 1.556 1.209 0 1.994-1.13 1.994-2.857 0-1.812-.679-2.771-1.951-2.771-.934 0-1.739.341-1.909 1.513l.623-.003-1.687 1.697-1.686-1.697zm-14.765-.911c0-.306-.246-.553-.55-.553h-3.478c-.303 0-.55.247-.55.553v3.5h.971v4.145h2.636v-4.145h.971zm-2.288-3.408c.656 0 1.189.536 1.189 1.197s-.533 1.197-1.189 1.197c-.657 0-1.189-.536-1.189-1.197s.532-1.197 1.189-1.197zm-.012-3.03c-2.355 0-4.349.827-5.981 2.481-1.675 1.711-2.512 3.737-2.512 6.076s.837 4.351 2.512 6.034c1.674 1.683 3.668 2.524 5.981 2.524 2.342 0 4.371-.849 6.088-2.547 1.619-1.611 2.428-3.615 2.428-6.012s-.823-4.421-2.47-6.076c-1.645-1.654-3.661-2.48-6.046-2.48zm.022 1.539c1.93 0 3.569.685 4.917 2.054 1.363 1.355 2.044 3.01 2.044 4.963 0 1.968-.666 3.602-2.001 4.9-1.405 1.398-3.058 2.096-4.96 2.096-1.901 0-3.541-.691-4.917-2.075-1.377-1.383-2.065-3.023-2.065-4.921 0-1.896.695-3.551 2.086-4.963 1.334-1.369 2.966-2.054 4.896-2.054z"/><path d="m69.277 24.171 1.816 4.888h-1.109l-.367-1.089h-1.816l-.381 1.089h-1.074l1.836-4.888zm.062 2.997-.612-1.793h-.014l-.633 1.793zm-6.079.682c.059.115.137.207.234.277.098.071.211.124.342.158.133.034.268.051.408.051.095 0 .197-.008.306-.023s.21-.047.306-.093c.094-.046.174-.108.236-.188.064-.08.096-.181.096-.305 0-.132-.042-.238-.126-.321-.083-.083-.194-.15-.329-.206-.136-.055-.29-.102-.461-.143-.173-.042-.348-.088-.523-.138-.182-.046-.358-.102-.531-.167-.171-.066-.325-.152-.461-.258-.137-.104-.246-.235-.33-.393-.083-.158-.125-.349-.125-.572 0-.252.053-.469.16-.654.105-.184.246-.338.418-.462.172-.123.366-.214.584-.274.217-.059.436-.088.652-.088.254 0 .497.028.73.086.232.057.44.149.621.277.182.127.326.291.432.49.107.198.16.439.16.723h-1.036c-.009-.146-.04-.268-.091-.363-.053-.096-.121-.172-.207-.227s-.184-.094-.295-.115c-.11-.023-.23-.035-.361-.035-.086 0-.172.01-.258.027-.086.019-.163.051-.232.096-.07.047-.129.104-.174.172s-.067.155-.067.26c0 .096.019.174.054.232.037.061.109.115.215.165s.254.101.441.151c.188.049.434.113.736.191.092.018.217.051.377.1.161.047.32.123.479.229.159.105.296.246.412.422.115.176.173.4.173.674 0 .225-.044.432-.13.623-.086.192-.214.357-.384.496-.171.141-.381.248-.632.326-.252.078-.544.116-.874.116-.268 0-.527-.033-.779-.1-.251-.065-.474-.171-.667-.312-.192-.143-.346-.323-.459-.543-.113-.219-.168-.479-.163-.78h1.036c-.001.165.028.304.087.418zm-17.287-3.679h1.198l1.138 1.931 1.13-1.931h1.19l-1.803 3.012v1.876h-1.07v-1.903zm-1.975 0c.231 0 .442.021.633.062s.354.108.491.201c.136.094.241.219.316.373.075.155.112.348.112.575 0 .247-.055.451-.167.616-.11.164-.276.298-.493.402.3.088.523.239.672.456.148.218.223.479.223.784 0 .246-.049.46-.144.641-.095.18-.224.327-.386.441-.161.114-.346.199-.552.254-.207.055-.419.082-.638.082h-2.358v-4.888h2.291zm-.137 1.976c.191 0 .347-.046.47-.136.123-.092.185-.239.185-.444 0-.114-.021-.208-.062-.28s-.095-.129-.164-.17-.146-.07-.235-.086-.181-.023-.276-.023h-1v1.14h1.082zm.062 2.075c.105 0 .205-.01.3-.03.095-.021.18-.055.252-.104.073-.047.13-.112.174-.194s.065-.187.065-.315c0-.25-.071-.43-.212-.536-.141-.107-.328-.161-.559-.161h-1.166v1.341h1.146z" fill="#fff"/></svg>